<svg width="133" height="31" viewBox="0 0 133 31" fill="none" xmlns="http://www.w3.org/2000/svg">
<path fill-rule="evenodd" clip-rule="evenodd" d="M19.4719 4.8037C17.5841 3.65901 15.369 3 13 3C6.09644 3 0.5 8.59644 0.5 15.5C0.5 17.1816 0.832074 18.7857 1.43422 20.2502C1.7524 19.4539 2.15186 18.7227 2.6326 18.0567C4.05434 16.0676 6.21509 14.5903 9.11487 13.6247L13.9291 12.0025C15.8435 11.3459 17.2511 10.5252 18.152 9.5403C19.0529 8.55541 19.5034 7.21326 19.5034 5.51385C19.5034 5.27171 19.4929 5.035 19.4719 4.8037ZM5.66121 25.62C5.72457 24.2516 6.11565 23.092 6.83446 22.1411C7.62275 21.0789 8.83333 20.2871 10.4662 19.7657L15.8716 18.0277C18.8418 17.0621 21.0236 15.5655 22.4172 13.5378C23.1774 12.4098 23.7281 11.1265 24.0694 9.68775C24.983 11.4241 25.5 13.4017 25.5 15.5C25.5 22.4036 19.9036 28 13 28C10.2579 28 7.72206 27.1171 5.66121 25.62Z" fill="#29A173"/>
<path fill-rule="evenodd" clip-rule="evenodd" d="M19.4719 4.8037C17.5841 3.65901 15.369 3 13 3C6.09644 3 0.5 8.59644 0.5 15.5C0.5 17.1816 0.832074 18.7857 1.43422 20.2502C1.7524 19.4539 2.15186 18.7227 2.6326 18.0567C4.05434 16.0676 6.21509 14.5903 9.11487 13.6247L13.9291 12.0025C15.8435 11.3459 17.2511 10.5252 18.152 9.5403C19.0529 8.55541 19.5034 7.21326 19.5034 5.51385C19.5034 5.27171 19.4929 5.035 19.4719 4.8037ZM5.66121 25.62C5.72457 24.2516 6.11565 23.092 6.83446 22.1411C7.62275 21.0789 8.83333 20.2871 10.4662 19.7657L15.8716 18.0277C18.8418 17.0621 21.0236 15.5655 22.4172 13.5378C23.1774 12.4098 23.7281 11.1265 24.0694 9.68775C24.983 11.4241 25.5 13.4017 25.5 15.5C25.5 22.4036 19.9036 28 13 28C10.2579 28 7.72206 27.1171 5.66121 25.62Z" fill="black" fill-opacity="0.2"/>
<path fill-rule="evenodd" clip-rule="evenodd" d="M19.4719 4.8037C17.5841 3.65901 15.369 3 13 3C6.09644 3 0.5 8.59644 0.5 15.5C0.5 17.1816 0.832074 18.7857 1.43422 20.2502C1.7524 19.4539 2.15186 18.7227 2.6326 18.0567C4.05434 16.0676 6.21509 14.5903 9.11487 13.6247L13.9291 12.0025C15.8435 11.3459 17.2511 10.5252 18.152 9.5403C19.0529 8.55541 19.5034 7.21326 19.5034 5.51385C19.5034 5.27171 19.4929 5.035 19.4719 4.8037ZM5.66121 25.62C5.72457 24.2516 6.11565 23.092 6.83446 22.1411C7.62275 21.0789 8.83333 20.2871 10.4662 19.7657L15.8716 18.0277C18.8418 17.0621 21.0236 15.5655 22.4172 13.5378C23.1774 12.4098 23.7281 11.1265 24.0694 9.68775C24.983 11.4241 25.5 13.4017 25.5 15.5C25.5 22.4036 19.9036 28 13 28C10.2579 28 7.72206 27.1171 5.66121 25.62Z" fill="black" fill-opacity="0.2"/>
<path d="M35.416 24.336C34.12 24.336 32.976 24.104 31.984 23.64C30.992 23.176 30.216 22.512 29.656 21.648C29.096 20.784 28.816 19.744 28.816 18.528V17.856H31.936V18.528C31.936 19.536 32.248 20.296 32.872 20.808C33.496 21.304 34.344 21.552 35.416 21.552C36.504 21.552 37.312 21.336 37.84 20.904C38.384 20.472 38.656 19.92 38.656 19.248C38.656 18.784 38.52 18.408 38.248 18.12C37.992 17.832 37.608 17.6 37.096 17.424C36.6 17.232 35.992 17.056 35.272 16.896L34.72 16.776C33.568 16.52 32.576 16.2 31.744 15.816C30.928 15.416 30.296 14.896 29.848 14.256C29.416 13.616 29.2 12.784 29.2 11.76C29.2 10.736 29.44 9.864 29.92 9.144C30.416 8.408 31.104 7.848 31.984 7.464C32.88 7.064 33.928 6.864 35.128 6.864C36.328 6.864 37.392 7.072 38.32 7.488C39.264 7.888 40 8.496 40.528 9.312C41.072 10.112 41.344 11.12 41.344 12.336V13.056H38.224V12.336C38.224 11.696 38.096 11.184 37.84 10.8C37.6 10.4 37.248 10.112 36.784 9.936C36.32 9.744 35.768 9.648 35.128 9.648C34.168 9.648 33.456 9.832 32.992 10.2C32.544 10.552 32.32 11.04 32.32 11.664C32.32 12.08 32.424 12.432 32.632 12.72C32.856 13.008 33.184 13.248 33.616 13.44C34.048 13.632 34.6 13.8 35.272 13.944L35.824 14.064C37.024 14.32 38.064 14.648 38.944 15.048C39.84 15.448 40.536 15.976 41.032 16.632C41.528 17.288 41.776 18.128 41.776 19.152C41.776 20.176 41.512 21.08 40.984 21.864C40.472 22.632 39.736 23.24 38.776 23.688C37.832 24.12 36.712 24.336 35.416 24.336ZM47.9307 24.336C47.0827 24.336 46.3227 24.192 45.6507 23.904C44.9787 23.6 44.4427 23.168 44.0427 22.608C43.6587 22.032 43.4667 21.336 43.4667 20.52C43.4667 19.704 43.6587 19.024 44.0427 18.48C44.4427 17.92 44.9867 17.504 45.6747 17.232C46.3787 16.944 47.1787 16.8 48.0747 16.8H51.3387V16.128C51.3387 15.568 51.1627 15.112 50.8107 14.76C50.4587 14.392 49.8987 14.208 49.1307 14.208C48.3787 14.208 47.8187 14.384 47.4507 14.736C47.0827 15.072 46.8427 15.512 46.7307 16.056L43.9467 15.12C44.1387 14.512 44.4427 13.96 44.8587 13.464C45.2907 12.952 45.8587 12.544 46.5627 12.24C47.2827 11.92 48.1547 11.76 49.1787 11.76C50.7467 11.76 51.9867 12.152 52.8987 12.936C53.8107 13.72 54.2667 14.856 54.2667 16.344V20.784C54.2667 21.264 54.4907 21.504 54.9387 21.504H55.8987V24H53.8827C53.2907 24 52.8027 23.856 52.4187 23.568C52.0347 23.28 51.8427 22.896 51.8427 22.416V22.392H51.3867C51.3227 22.584 51.1787 22.84 50.9547 23.16C50.7307 23.464 50.3787 23.736 49.8987 23.976C49.4187 24.216 48.7627 24.336 47.9307 24.336ZM48.4587 21.888C49.3067 21.888 49.9947 21.656 50.5227 21.192C51.0667 20.712 51.3387 20.08 51.3387 19.296V19.056H48.2907C47.7307 19.056 47.2907 19.176 46.9707 19.416C46.6507 19.656 46.4907 19.992 46.4907 20.424C46.4907 20.856 46.6587 21.208 46.9947 21.48C47.3307 21.752 47.8187 21.888 48.4587 21.888ZM61.8025 24C61.0185 24 60.3785 23.76 59.8825 23.28C59.4025 22.784 59.1625 22.128 59.1625 21.312V14.592H56.1865V12.096H59.1625V8.4H62.1865V12.096H65.4505V14.592H62.1865V20.784C62.1865 21.264 62.4105 21.504 62.8585 21.504H65.1625V24H61.8025ZM73.9238 24.336C72.6278 24.336 71.4838 24.104 70.4918 23.64C69.4998 23.176 68.7238 22.512 68.1638 21.648C67.6038 20.784 67.3238 19.744 67.3238 18.528V17.856H70.4438V18.528C70.4438 19.536 70.7558 20.296 71.3798 20.808C72.0038 21.304 72.8518 21.552 73.9238 21.552C75.0118 21.552 75.8198 21.336 76.3478 20.904C76.8918 20.472 77.1638 19.92 77.1638 19.248C77.1638 18.784 77.0278 18.408 76.7558 18.12C76.4998 17.832 76.1158 17.6 75.6038 17.424C75.1078 17.232 74.4998 17.056 73.7798 16.896L73.2278 16.776C72.0758 16.52 71.0838 16.2 70.2518 15.816C69.4358 15.416 68.8038 14.896 68.3558 14.256C67.9238 13.616 67.7078 12.784 67.7078 11.76C67.7078 10.736 67.9478 9.864 68.4278 9.144C68.9238 8.408 69.6118 7.848 70.4918 7.464C71.3878 7.064 72.4358 6.864 73.6358 6.864C74.8358 6.864 75.8998 7.072 76.8278 7.488C77.7718 7.888 78.5078 8.496 79.0358 9.312C79.5798 10.112 79.8518 11.12 79.8518 12.336V13.056H76.7318V12.336C76.7318 11.696 76.6038 11.184 76.3478 10.8C76.1078 10.4 75.7558 10.112 75.2918 9.936C74.8278 9.744 74.2758 9.648 73.6358 9.648C72.6758 9.648 71.9638 9.832 71.4998 10.2C71.0518 10.552 70.8278 11.04 70.8278 11.664C70.8278 12.08 70.9318 12.432 71.1398 12.72C71.3638 13.008 71.6918 13.248 72.1238 13.44C72.5558 13.632 73.1078 13.8 73.7798 13.944L74.3318 14.064C75.5318 14.32 76.5718 14.648 77.4518 15.048C78.3478 15.448 79.0438 15.976 79.5398 16.632C80.0358 17.288 80.2838 18.128 80.2838 19.152C80.2838 20.176 80.0198 21.08 79.4918 21.864C78.9798 22.632 78.2438 23.24 77.2838 23.688C76.3398 24.12 75.2198 24.336 73.9238 24.336ZM86.4385 24.336C85.5905 24.336 84.8305 24.192 84.1585 23.904C83.4865 23.6 82.9505 23.168 82.5505 22.608C82.1665 22.032 81.9745 21.336 81.9745 20.52C81.9745 19.704 82.1665 19.024 82.5505 18.48C82.9505 17.92 83.4945 17.504 84.1825 17.232C84.8865 16.944 85.6865 16.8 86.5825 16.8H89.8465V16.128C89.8465 15.568 89.6705 15.112 89.3185 14.76C88.9665 14.392 88.4065 14.208 87.6385 14.208C86.8865 14.208 86.3265 14.384 85.9585 14.736C85.5905 15.072 85.3505 15.512 85.2385 16.056L82.4545 15.12C82.6465 14.512 82.9505 13.96 83.3665 13.464C83.7985 12.952 84.3665 12.544 85.0705 12.24C85.7905 11.92 86.6625 11.76 87.6865 11.76C89.2545 11.76 90.4945 12.152 91.4065 12.936C92.3185 13.72 92.7745 14.856 92.7745 16.344V20.784C92.7745 21.264 92.9985 21.504 93.4465 21.504H94.4065V24H92.3905C91.7985 24 91.3105 23.856 90.9265 23.568C90.5425 23.28 90.3505 22.896 90.3505 22.416V22.392H89.8945C89.8305 22.584 89.6865 22.84 89.4625 23.16C89.2385 23.464 88.8865 23.736 88.4065 23.976C87.9265 24.216 87.2705 24.336 86.4385 24.336ZM86.9665 21.888C87.8145 21.888 88.5025 21.656 89.0305 21.192C89.5745 20.712 89.8465 20.08 89.8465 19.296V19.056H86.7985C86.2385 19.056 85.7985 19.176 85.4785 19.416C85.1585 19.656 84.9985 19.992 84.9985 20.424C84.9985 20.856 85.1665 21.208 85.5025 21.48C85.8385 21.752 86.3265 21.888 86.9665 21.888ZM100.31 24C99.5263 24 98.8863 23.76 98.3903 23.28C97.9103 22.784 97.6703 22.128 97.6703 21.312V14.592H94.6943V12.096H97.6703V8.4H100.694V12.096H103.958V14.592H100.694V20.784C100.694 21.264 100.918 21.504 101.366 21.504H103.67V24H100.31ZM111.26 24L115.676 7.2H121.196L125.612 24H122.348L121.436 20.304H115.436L114.524 24H111.26ZM116.18 17.376H120.692L118.652 9.192H118.22L116.18 17.376ZM127.623 24V7.2H130.791V24H127.623Z" fill="#29A173"/>
<path d="M35.416 24.336C34.12 24.336 32.976 24.104 31.984 23.64C30.992 23.176 30.216 22.512 29.656 21.648C29.096 20.784 28.816 19.744 28.816 18.528V17.856H31.936V18.528C31.936 19.536 32.248 20.296 32.872 20.808C33.496 21.304 34.344 21.552 35.416 21.552C36.504 21.552 37.312 21.336 37.84 20.904C38.384 20.472 38.656 19.92 38.656 19.248C38.656 18.784 38.52 18.408 38.248 18.12C37.992 17.832 37.608 17.6 37.096 17.424C36.6 17.232 35.992 17.056 35.272 16.896L34.72 16.776C33.568 16.52 32.576 16.2 31.744 15.816C30.928 15.416 30.296 14.896 29.848 14.256C29.416 13.616 29.2 12.784 29.2 11.76C29.2 10.736 29.44 9.864 29.92 9.144C30.416 8.408 31.104 7.848 31.984 7.464C32.88 7.064 33.928 6.864 35.128 6.864C36.328 6.864 37.392 7.072 38.32 7.488C39.264 7.888 40 8.496 40.528 9.312C41.072 10.112 41.344 11.12 41.344 12.336V13.056H38.224V12.336C38.224 11.696 38.096 11.184 37.84 10.8C37.6 10.4 37.248 10.112 36.784 9.936C36.32 9.744 35.768 9.648 35.128 9.648C34.168 9.648 33.456 9.832 32.992 10.2C32.544 10.552 32.32 11.04 32.32 11.664C32.32 12.08 32.424 12.432 32.632 12.72C32.856 13.008 33.184 13.248 33.616 13.44C34.048 13.632 34.6 13.8 35.272 13.944L35.824 14.064C37.024 14.32 38.064 14.648 38.944 15.048C39.84 15.448 40.536 15.976 41.032 16.632C41.528 17.288 41.776 18.128 41.776 19.152C41.776 20.176 41.512 21.08 40.984 21.864C40.472 22.632 39.736 23.24 38.776 23.688C37.832 24.12 36.712 24.336 35.416 24.336ZM47.9307 24.336C47.0827 24.336 46.3227 24.192 45.6507 23.904C44.9787 23.6 44.4427 23.168 44.0427 22.608C43.6587 22.032 43.4667 21.336 43.4667 20.52C43.4667 19.704 43.6587 19.024 44.0427 18.48C44.4427 17.92 44.9867 17.504 45.6747 17.232C46.3787 16.944 47.1787 16.8 48.0747 16.8H51.3387V16.128C51.3387 15.568 51.1627 15.112 50.8107 14.76C50.4587 14.392 49.8987 14.208 49.1307 14.208C48.3787 14.208 47.8187 14.384 47.4507 14.736C47.0827 15.072 46.8427 15.512 46.7307 16.056L43.9467 15.12C44.1387 14.512 44.4427 13.96 44.8587 13.464C45.2907 12.952 45.8587 12.544 46.5627 12.24C47.2827 11.92 48.1547 11.76 49.1787 11.76C50.7467 11.76 51.9867 12.152 52.8987 12.936C53.8107 13.72 54.2667 14.856 54.2667 16.344V20.784C54.2667 21.264 54.4907 21.504 54.9387 21.504H55.8987V24H53.8827C53.2907 24 52.8027 23.856 52.4187 23.568C52.0347 23.28 51.8427 22.896 51.8427 22.416V22.392H51.3867C51.3227 22.584 51.1787 22.84 50.9547 23.16C50.7307 23.464 50.3787 23.736 49.8987 23.976C49.4187 24.216 48.7627 24.336 47.9307 24.336ZM48.4587 21.888C49.3067 21.888 49.9947 21.656 50.5227 21.192C51.0667 20.712 51.3387 20.08 51.3387 19.296V19.056H48.2907C47.7307 19.056 47.2907 19.176 46.9707 19.416C46.6507 19.656 46.4907 19.992 46.4907 20.424C46.4907 20.856 46.6587 21.208 46.9947 21.48C47.3307 21.752 47.8187 21.888 48.4587 21.888ZM61.8025 24C61.0185 24 60.3785 23.76 59.8825 23.28C59.4025 22.784 59.1625 22.128 59.1625 21.312V14.592H56.1865V12.096H59.1625V8.4H62.1865V12.096H65.4505V14.592H62.1865V20.784C62.1865 21.264 62.4105 21.504 62.8585 21.504H65.1625V24H61.8025ZM73.9238 24.336C72.6278 24.336 71.4838 24.104 70.4918 23.64C69.4998 23.176 68.7238 22.512 68.1638 21.648C67.6038 20.784 67.3238 19.744 67.3238 18.528V17.856H70.4438V18.528C70.4438 19.536 70.7558 20.296 71.3798 20.808C72.0038 21.304 72.8518 21.552 73.9238 21.552C75.0118 21.552 75.8198 21.336 76.3478 20.904C76.8918 20.472 77.1638 19.92 77.1638 19.248C77.1638 18.784 77.0278 18.408 76.7558 18.12C76.4998 17.832 76.1158 17.6 75.6038 17.424C75.1078 17.232 74.4998 17.056 73.7798 16.896L73.2278 16.776C72.0758 16.52 71.0838 16.2 70.2518 15.816C69.4358 15.416 68.8038 14.896 68.3558 14.256C67.9238 13.616 67.7078 12.784 67.7078 11.76C67.7078 10.736 67.9478 9.864 68.4278 9.144C68.9238 8.408 69.6118 7.848 70.4918 7.464C71.3878 7.064 72.4358 6.864 73.6358 6.864C74.8358 6.864 75.8998 7.072 76.8278 7.488C77.7718 7.888 78.5078 8.496 79.0358 9.312C79.5798 10.112 79.8518 11.12 79.8518 12.336V13.056H76.7318V12.336C76.7318 11.696 76.6038 11.184 76.3478 10.8C76.1078 10.4 75.7558 10.112 75.2918 9.936C74.8278 9.744 74.2758 9.648 73.6358 9.648C72.6758 9.648 71.9638 9.832 71.4998 10.2C71.0518 10.552 70.8278 11.04 70.8278 11.664C70.8278 12.08 70.9318 12.432 71.1398 12.72C71.3638 13.008 71.6918 13.248 72.1238 13.44C72.5558 13.632 73.1078 13.8 73.7798 13.944L74.3318 14.064C75.5318 14.32 76.5718 14.648 77.4518 15.048C78.3478 15.448 79.0438 15.976 79.5398 16.632C80.0358 17.288 80.2838 18.128 80.2838 19.152C80.2838 20.176 80.0198 21.08 79.4918 21.864C78.9798 22.632 78.2438 23.24 77.2838 23.688C76.3398 24.12 75.2198 24.336 73.9238 24.336ZM86.4385 24.336C85.5905 24.336 84.8305 24.192 84.1585 23.904C83.4865 23.6 82.9505 23.168 82.5505 22.608C82.1665 22.032 81.9745 21.336 81.9745 20.52C81.9745 19.704 82.1665 19.024 82.5505 18.48C82.9505 17.92 83.4945 17.504 84.1825 17.232C84.8865 16.944 85.6865 16.8 86.5825 16.8H89.8465V16.128C89.8465 15.568 89.6705 15.112 89.3185 14.76C88.9665 14.392 88.4065 14.208 87.6385 14.208C86.8865 14.208 86.3265 14.384 85.9585 14.736C85.5905 15.072 85.3505 15.512 85.2385 16.056L82.4545 15.12C82.6465 14.512 82.9505 13.96 83.3665 13.464C83.7985 12.952 84.3665 12.544 85.0705 12.24C85.7905 11.92 86.6625 11.76 87.6865 11.76C89.2545 11.76 90.4945 12.152 91.4065 12.936C92.3185 13.72 92.7745 14.856 92.7745 16.344V20.784C92.7745 21.264 92.9985 21.504 93.4465 21.504H94.4065V24H92.3905C91.7985 24 91.3105 23.856 90.9265 23.568C90.5425 23.28 90.3505 22.896 90.3505 22.416V22.392H89.8945C89.8305 22.584 89.6865 22.84 89.4625 23.16C89.2385 23.464 88.8865 23.736 88.4065 23.976C87.9265 24.216 87.2705 24.336 86.4385 24.336ZM86.9665 21.888C87.8145 21.888 88.5025 21.656 89.0305 21.192C89.5745 20.712 89.8465 20.08 89.8465 19.296V19.056H86.7985C86.2385 19.056 85.7985 19.176 85.4785 19.416C85.1585 19.656 84.9985 19.992 84.9985 20.424C84.9985 20.856 85.1665 21.208 85.5025 21.48C85.8385 21.752 86.3265 21.888 86.9665 21.888ZM100.31 24C99.5263 24 98.8863 23.76 98.3903 23.28C97.9103 22.784 97.6703 22.128 97.6703 21.312V14.592H94.6943V12.096H97.6703V8.4H100.694V12.096H103.958V14.592H100.694V20.784C100.694 21.264 100.918 21.504 101.366 21.504H103.67V24H100.31ZM111.26 24L115.676 7.2H121.196L125.612 24H122.348L121.436 20.304H115.436L114.524 24H111.26ZM116.18 17.376H120.692L118.652 9.192H118.22L116.18 17.376ZM127.623 24V7.2H130.791V24H127.623Z" fill="black" fill-opacity="0.2"/>
<path d="M35.416 24.336C34.12 24.336 32.976 24.104 31.984 23.64C30.992 23.176 30.216 22.512 29.656 21.648C29.096 20.784 28.816 19.744 28.816 18.528V17.856H31.936V18.528C31.936 19.536 32.248 20.296 32.872 20.808C33.496 21.304 34.344 21.552 35.416 21.552C36.504 21.552 37.312 21.336 37.84 20.904C38.384 20.472 38.656 19.92 38.656 19.248C38.656 18.784 38.52 18.408 38.248 18.12C37.992 17.832 37.608 17.6 37.096 17.424C36.6 17.232 35.992 17.056 35.272 16.896L34.72 16.776C33.568 16.52 32.576 16.2 31.744 15.816C30.928 15.416 30.296 14.896 29.848 14.256C29.416 13.616 29.2 12.784 29.2 11.76C29.2 10.736 29.44 9.864 29.92 9.144C30.416 8.408 31.104 7.848 31.984 7.464C32.88 7.064 33.928 6.864 35.128 6.864C36.328 6.864 37.392 7.072 38.32 7.488C39.264 7.888 40 8.496 40.528 9.312C41.072 10.112 41.344 11.12 41.344 12.336V13.056H38.224V12.336C38.224 11.696 38.096 11.184 37.84 10.8C37.6 10.4 37.248 10.112 36.784 9.936C36.32 9.744 35.768 9.648 35.128 9.648C34.168 9.648 33.456 9.832 32.992 10.2C32.544 10.552 32.32 11.04 32.32 11.664C32.32 12.08 32.424 12.432 32.632 12.72C32.856 13.008 33.184 13.248 33.616 13.44C34.048 13.632 34.6 13.8 35.272 13.944L35.824 14.064C37.024 14.32 38.064 14.648 38.944 15.048C39.84 15.448 40.536 15.976 41.032 16.632C41.528 17.288 41.776 18.128 41.776 19.152C41.776 20.176 41.512 21.08 40.984 21.864C40.472 22.632 39.736 23.24 38.776 23.688C37.832 24.12 36.712 24.336 35.416 24.336ZM47.9307 24.336C47.0827 24.336 46.3227 24.192 45.6507 23.904C44.9787 23.6 44.4427 23.168 44.0427 22.608C43.6587 22.032 43.4667 21.336 43.4667 20.52C43.4667 19.704 43.6587 19.024 44.0427 18.48C44.4427 17.92 44.9867 17.504 45.6747 17.232C46.3787 16.944 47.1787 16.8 48.0747 16.8H51.3387V16.128C51.3387 15.568 51.1627 15.112 50.8107 14.76C50.4587 14.392 49.8987 14.208 49.1307 14.208C48.3787 14.208 47.8187 14.384 47.4507 14.736C47.0827 15.072 46.8427 15.512 46.7307 16.056L43.9467 15.12C44.1387 14.512 44.4427 13.96 44.8587 13.464C45.2907 12.952 45.8587 12.544 46.5627 12.24C47.2827 11.92 48.1547 11.76 49.1787 11.76C50.7467 11.76 51.9867 12.152 52.8987 12.936C53.8107 13.72 54.2667 14.856 54.2667 16.344V20.784C54.2667 21.264 54.4907 21.504 54.9387 21.504H55.8987V24H53.8827C53.2907 24 52.8027 23.856 52.4187 23.568C52.0347 23.28 51.8427 22.896 51.8427 22.416V22.392H51.3867C51.3227 22.584 51.1787 22.84 50.9547 23.16C50.7307 23.464 50.3787 23.736 49.8987 23.976C49.4187 24.216 48.7627 24.336 47.9307 24.336ZM48.4587 21.888C49.3067 21.888 49.9947 21.656 50.5227 21.192C51.0667 20.712 51.3387 20.08 51.3387 19.296V19.056H48.2907C47.7307 19.056 47.2907 19.176 46.9707 19.416C46.6507 19.656 46.4907 19.992 46.4907 20.424C46.4907 20.856 46.6587 21.208 46.9947 21.48C47.3307 21.752 47.8187 21.888 48.4587 21.888ZM61.8025 24C61.0185 24 60.3785 23.76 59.8825 23.28C59.4025 22.784 59.1625 22.128 59.1625 21.312V14.592H56.1865V12.096H59.1625V8.4H62.1865V12.096H65.4505V14.592H62.1865V20.784C62.1865 21.264 62.4105 21.504 62.8585 21.504H65.1625V24H61.8025ZM73.9238 24.336C72.6278 24.336 71.4838 24.104 70.4918 23.64C69.4998 23.176 68.7238 22.512 68.1638 21.648C67.6038 20.784 67.3238 19.744 67.3238 18.528V17.856H70.4438V18.528C70.4438 19.536 70.7558 20.296 71.3798 20.808C72.0038 21.304 72.8518 21.552 73.9238 21.552C75.0118 21.552 75.8198 21.336 76.3478 20.904C76.8918 20.472 77.1638 19.92 77.1638 19.248C77.1638 18.784 77.0278 18.408 76.7558 18.12C76.4998 17.832 76.1158 17.6 75.6038 17.424C75.1078 17.232 74.4998 17.056 73.7798 16.896L73.2278 16.776C72.0758 16.52 71.0838 16.2 70.2518 15.816C69.4358 15.416 68.8038 14.896 68.3558 14.256C67.9238 13.616 67.7078 12.784 67.7078 11.76C67.7078 10.736 67.9478 9.864 68.4278 9.144C68.9238 8.408 69.6118 7.848 70.4918 7.464C71.3878 7.064 72.4358 6.864 73.6358 6.864C74.8358 6.864 75.8998 7.072 76.8278 7.488C77.7718 7.888 78.5078 8.496 79.0358 9.312C79.5798 10.112 79.8518 11.12 79.8518 12.336V13.056H76.7318V12.336C76.7318 11.696 76.6038 11.184 76.3478 10.8C76.1078 10.4 75.7558 10.112 75.2918 9.936C74.8278 9.744 74.2758 9.648 73.6358 9.648C72.6758 9.648 71.9638 9.832 71.4998 10.2C71.0518 10.552 70.8278 11.04 70.8278 11.664C70.8278 12.08 70.9318 12.432 71.1398 12.72C71.3638 13.008 71.6918 13.248 72.1238 13.44C72.5558 13.632 73.1078 13.8 73.7798 13.944L74.3318 14.064C75.5318 14.32 76.5718 14.648 77.4518 15.048C78.3478 15.448 79.0438 15.976 79.5398 16.632C80.0358 17.288 80.2838 18.128 80.2838 19.152C80.2838 20.176 80.0198 21.08 79.4918 21.864C78.9798 22.632 78.2438 23.24 77.2838 23.688C76.3398 24.12 75.2198 24.336 73.9238 24.336ZM86.4385 24.336C85.5905 24.336 84.8305 24.192 84.1585 23.904C83.4865 23.6 82.9505 23.168 82.5505 22.608C82.1665 22.032 81.9745 21.336 81.9745 20.52C81.9745 19.704 82.1665 19.024 82.5505 18.48C82.9505 17.92 83.4945 17.504 84.1825 17.232C84.8865 16.944 85.6865 16.8 86.5825 16.8H89.8465V16.128C89.8465 15.568 89.6705 15.112 89.3185 14.76C88.9665 14.392 88.4065 14.208 87.6385 14.208C86.8865 14.208 86.3265 14.384 85.9585 14.736C85.5905 15.072 85.3505 15.512 85.2385 16.056L82.4545 15.12C82.6465 14.512 82.9505 13.96 83.3665 13.464C83.7985 12.952 84.3665 12.544 85.0705 12.24C85.7905 11.92 86.6625 11.76 87.6865 11.76C89.2545 11.76 90.4945 12.152 91.4065 12.936C92.3185 13.72 92.7745 14.856 92.7745 16.344V20.784C92.7745 21.264 92.9985 21.504 93.4465 21.504H94.4065V24H92.3905C91.7985 24 91.3105 23.856 90.9265 23.568C90.5425 23.28 90.3505 22.896 90.3505 22.416V22.392H89.8945C89.8305 22.584 89.6865 22.84 89.4625 23.16C89.2385 23.464 88.8865 23.736 88.4065 23.976C87.9265 24.216 87.2705 24.336 86.4385 24.336ZM86.9665 21.888C87.8145 21.888 88.5025 21.656 89.0305 21.192C89.5745 20.712 89.8465 20.08 89.8465 19.296V19.056H86.7985C86.2385 19.056 85.7985 19.176 85.4785 19.416C85.1585 19.656 84.9985 19.992 84.9985 20.424C84.9985 20.856 85.1665 21.208 85.5025 21.48C85.8385 21.752 86.3265 21.888 86.9665 21.888ZM100.31 24C99.5263 24 98.8863 23.76 98.3903 23.28C97.9103 22.784 97.6703 22.128 97.6703 21.312V14.592H94.6943V12.096H97.6703V8.4H100.694V12.096H103.958V14.592H100.694V20.784C100.694 21.264 100.918 21.504 101.366 21.504H103.67V24H100.31ZM111.26 24L115.676 7.2H121.196L125.612 24H122.348L121.436 20.304H115.436L114.524 24H111.26ZM116.18 17.376H120.692L118.652 9.192H118.22L116.18 17.376ZM127.623 24V7.2H130.791V24H127.623Z" fill="black" fill-opacity="0.2"/>
</svg>
